<svg version="1.1" xmlns="http://www.w3.org/2000/svg">

    <!-- #181717 -->
    <symbol id="github" role="img" viewBox="0 0 24 24" xmlns="http://www.w3.org/2000/svg" fill-rule="evenodd" clip-rule="evenodd" stroke-linejoin="round" stroke-miterlimit="1.414">
        <title>GitHub</title>
        <path d="M12 .297c-6.63 0-12 5.373-12 12 0 5.303 3.438 9.8 8.205 11.385.6.113.82-.258.82-.577 0-.285-.01-1.04-.015-2.04-3.338.724-4.042-1.61-4.042-1.61C4.422 18.07 3.633 17.7 3.633 17.7c-1.087-.744.084-.729.084-.729 1.205.084 1.838 1.236 1.838 1.236 1.07 1.835 2.809 1.305 3.495.998.108-.776.417-1.305.76-1.605-2.665-.3-5.466-1.332-5.466-5.93 0-1.31.465-2.38 1.235-3.22-.135-.303-.54-1.523.105-3.176 0 0 1.005-.322 3.3 1.23.96-.267 1.98-.399 3-.405 1.02.006 2.04.138 3 .405 2.28-1.552 3.285-1.23 3.285-1.23.645 1.653.24 2.873.12 3.176.765.84 1.23 1.91 1.23 3.22 0 4.61-2.805 5.625-5.475 5.92.42.36.81 1.096.81 2.22 0 1.606-.015 2.896-.015 3.286 0 .315.21.69.825.57C20.565 22.092 24 17.592 24 12.297c0-6.627-5.373-12-12-12"/>
    </symbol>
    <!-- #CB3837 -->
    <symbol id="npm" width="32" height="32" viewBox="0 0 32 32">
        <title>npm package</title>
        <path d="M0 0v32h32v-32h-32zM26 26h-4v-16h-6v16h-10v-20h20v20z"></path>
    </symbol>
    <symbol id="book" width="417" height="448" viewBox="0 0 417 448">
        <title>Documentation</title>
        <path d="M409.75 119.5c6.25 9 8 20.75 4.5 32.25l-68.75 226.5c-6.25 21.25-28.25 37.75-49.75 37.75h-230.75c-25.5 0-52.75-20.25-62-46.25-4-11.25-4-22.25-0.5-31.75 0.5-5 1.5-10 1.75-16 0.25-4-2-7.25-1.5-10.25 1-6 6.25-10.25 10.25-17 7.5-12.5 16-32.75 18.75-45.75 1.25-4.75-1.25-10.25 0-14.5 1.25-4.75 6-8.25 8.5-12.75 6.75-11.5 15.5-33.75 16.75-45.5 0.5-5.25-2-11-0.5-15 1.75-5.75 7.25-8.25 11-13.25 6-8.25 16-32 17.5-45.25 0.5-4.25-2-8.5-1.25-13 1-4.75 7-9.75 11-15.5 10.5-15.5 12.5-49.75 44.25-40.75l-0.25 0.75c4.25-1 8.5-2.25 12.75-2.25h190.25c11.75 0 22.25 5.25 28.5 14 6.5 9 8 20.75 4.5 32.5l-68.5 226.5c-11.75 38.5-18.25 47-50 47h-217.25c-3.25 0-7.25 0.75-9.5 3.75-2 3-2.25 5.25-0.25 10.75 5 14.5 22.25 17.5 36 17.5h230.75c9.25 0 20-5.25 22.75-14.25l75-246.75c1.5-4.75 1.5-9.75 1.25-14.25 5.75 2.25 11 5.75 14.75 10.75zM143.75 120c-1.5 4.5 1 8 5.5 8h152c4.25 0 9-3.5 10.5-8l5.25-16c1.5-4.5-1-8-5.5-8h-152c-4.25 0-9 3.5-10.5 8zM123 184c-1.5 4.5 1 8 5.5 8h152c4.25 0 9-3.5 10.5-8l5.25-16c1.5-4.5-1-8-5.5-8h-152c-4.25 0-9 3.5-10.5 8z"></path>
    </symbol>
    <symbol id="book2" width="20" height="20" viewBox="0 0 20 20">
        <title>Documentation</title>
        <path d="M17 5.95v10.351c0 0.522-0.452 0.771-1 1.16-0.44 0.313-1-0.075-1-0.587 0 0 0-9.905 0-10.114 0-0.211-0.074-0.412-0.314-0.535s-7.738-4.065-7.738-4.065c-0.121-0.045-0.649-0.378-1.353-0.016-0.669 0.344-1.033 0.718-1.126 0.894l8.18 4.482c0.217 0.114 0.351 0.29 0.351 0.516v10.802c0 0.23-0.142 0.476-0.369 0.585-0.104 0.052-0.219 0.077-0.333 0.077-0.135 0-0.271-0.033-0.386-0.104-0.215-0.131-7.774-4.766-8.273-5.067-0.24-0.144-0.521-0.439-0.527-0.658l-0.112-10.286c0-0.198-0.023-0.547 0.289-1.032 0.697-1.084 3.129-2.317 4.36-1.678l8.999 4.555c0.217 0.112 0.352 0.336 0.352 0.72z"></path>
    </symbol>
    <symbol id="book3" width="32" height="32" viewBox="0 0 32 32">
        <title>Documentation</title>
        <path d="M28 4v26h-21c-1.657 0-3-1.343-3-3s1.343-3 3-3h19v-24h-20c-2.2 0-4 1.8-4 4v24c0 2.2 1.8 4 4 4h24v-28h-2z"></path>
        <path d="M7.002 26v0c-0.001 0-0.001 0-0.002 0-0.552 0-1 0.448-1 1s0.448 1 1 1c0.001 0 0.001-0 0.002-0v0h18.997v-2h-18.997z"></path>
    </symbol>

</svg>
